<svg width="16" height="20" viewBox="0 0 16 20" fill="none" xmlns="http://www.w3.org/2000/svg">
<path d="M1.916 13.215C2.0752 13.1825 2.2376 13.1667 2.4 13.1667H3.2V0.579167C1.3376 0.955208 0 2.57733 0 4.45833V13.9781C0.5592 13.5609 1.22 13.2973 1.916 13.215ZM16 14.75H2.4C1.0744 14.75 0 15.8132 0 17.125C0 18.4368 1.0744 19.5 2.4 19.5H12C14.2088 19.5 16 17.7275 16 15.5417V14.75ZM16 4.45833V13.1667H4.8V0.5H8.8V8.69217C8.8 9.18538 9.4328 9.39675 9.7352 9.00488L10.8 7.625L11.8648 9.00488C12.1672 9.39675 12.8 9.18538 12.8 8.69217V0.579958C14.6256 0.9465 16 2.54329 16 4.45833Z" fill="#272727"/>
</svg>
