<svg width="52" height="53" viewBox="0 0 52 53" fill="none" xmlns="http://www.w3.org/2000/svg">
<path d="M19.6472 7.12862C16.693 6.79209 13.64 6.79209 10.6858 7.12862C8.78525 7.34512 7.24842 8.87053 7.0243 10.8237C6.67094 13.903 6.67094 17.0138 7.0243 20.0932C7.24842 22.0463 8.78525 23.5717 10.6858 23.7882C13.64 24.1247 16.693 24.1247 19.6472 23.7882C21.5478 23.5717 23.0846 22.0463 23.3087 20.0932C23.6621 17.0138 23.6621 13.903 23.3087 10.8237C23.0846 8.87053 21.5478 7.34512 19.6472 7.12862Z" fill="#272727"/>
<path d="M19.6472 29.2119C16.693 28.8754 13.64 28.8754 10.6858 29.2119C8.78525 29.4284 7.24842 30.9539 7.0243 32.907C6.67094 35.9863 6.67094 39.0972 7.0243 42.1765C7.24842 44.1296 8.78525 45.655 10.6858 45.8715C13.64 46.2081 16.693 46.2081 19.6472 45.8715C21.5478 45.655 23.0846 44.1296 23.3087 42.1765C23.6621 39.0972 23.6621 35.9863 23.3087 32.907C23.0846 30.9539 21.5478 29.4284 19.6472 29.2119Z" fill="#272727"/>
<path d="M41.3139 7.12862C38.3597 6.79209 35.3067 6.79209 32.3525 7.12862C30.4519 7.34512 28.9151 8.87053 28.691 10.8237C28.3376 13.903 28.3376 17.0138 28.691 20.0932C28.9151 22.0463 30.4519 23.5717 32.3525 23.7882C35.3067 24.1247 38.3597 24.1247 41.3139 23.7882C43.2145 23.5717 44.7513 22.0463 44.9754 20.0932C45.3288 17.0138 45.3288 13.903 44.9754 10.8237C44.7513 8.87053 43.2145 7.34512 41.3139 7.12862Z" fill="#272727"/>
<path d="M41.3139 29.2119C38.3597 28.8754 35.3067 28.8754 32.3525 29.2119C30.4519 29.4284 28.9151 30.9539 28.691 32.907C28.3376 35.9863 28.3376 39.0972 28.691 42.1765C28.9151 44.1296 30.4519 45.655 32.3525 45.8715C35.3067 46.2081 38.3597 46.2081 41.3139 45.8715C43.2145 45.655 44.7513 44.1296 44.9754 42.1765C45.3288 39.0972 45.3288 35.9863 44.9754 32.907C44.7513 30.9539 43.2145 29.4284 41.3139 29.2119Z" fill="#272727"/>
</svg>
