<svg width="34" height="34" viewBox="0 0 34 34" fill="none" xmlns="http://www.w3.org/2000/svg">
<path d="M14.8746 24.0831C14.6881 24.0842 14.5033 24.0484 14.3307 23.9779C14.1581 23.9074 14.0011 23.8036 13.8688 23.6723C13.736 23.5406 13.6306 23.3839 13.5587 23.2112C13.4867 23.0386 13.4497 22.8534 13.4497 22.6664C13.4497 22.4794 13.4867 22.2942 13.5587 22.1216C13.6306 21.949 13.736 21.7923 13.8688 21.6606L18.5579 16.9998L14.0529 12.3106C13.7891 12.0452 13.641 11.6861 13.641 11.3118C13.641 10.9376 13.7891 10.5785 14.0529 10.3131C14.1846 10.1803 14.3413 10.0749 14.5139 10.003C14.6866 9.93107 14.8717 9.89404 15.0588 9.89404C15.2458 9.89404 15.4309 9.93107 15.6036 10.003C15.7762 10.0749 15.9329 10.1803 16.0646 10.3131L21.5329 15.9798C21.7925 16.2446 21.9379 16.6006 21.9379 16.9714C21.9379 17.3422 21.7925 17.6983 21.5329 17.9631L15.8663 23.6298C15.7391 23.7671 15.586 23.8778 15.4158 23.9557C15.2456 24.0335 15.0616 24.0768 14.8746 24.0831Z" fill="#9B9B9B"/>
</svg>
