<svg width="26" height="27" viewBox="0 0 26 27" fill="none" xmlns="http://www.w3.org/2000/svg">
<path d="M9.82384 3.63151C8.34673 3.46007 6.82026 3.46007 5.34315 3.63151C4.39287 3.7418 3.62446 4.5189 3.51239 5.51389C3.33571 7.08261 3.33571 8.66737 3.51239 10.2361C3.62446 11.2311 4.39287 12.0082 5.34315 12.1185C6.82026 12.2899 8.34673 12.2899 9.82384 12.1185C10.7741 12.0082 11.5425 11.2311 11.6546 10.2361C11.8313 8.66737 11.8313 7.08261 11.6546 5.51389C11.5425 4.5189 10.7741 3.7418 9.82384 3.63151Z" fill="#B8B8B8"/>
<path d="M9.82384 14.8815C8.34673 14.7101 6.82026 14.7101 5.34315 14.8815C4.39287 14.9918 3.62446 15.7689 3.51239 16.7639C3.33571 18.3326 3.33571 19.9174 3.51239 21.4861C3.62446 22.4811 4.39287 23.2582 5.34315 23.3685C6.82026 23.5399 8.34673 23.5399 9.82384 23.3685C10.7741 23.2582 11.5425 22.4811 11.6546 21.4861C11.8313 19.9174 11.8313 18.3326 11.6546 16.7639C11.5425 15.7689 10.7741 14.9918 9.82384 14.8815Z" fill="#B8B8B8"/>
<path d="M20.6572 3.63151C19.1801 3.46007 17.6536 3.46007 16.1765 3.63151C15.2262 3.7418 14.4578 4.5189 14.3457 5.51389C14.1691 7.08261 14.1691 8.66737 14.3457 10.2361C14.4578 11.2311 15.2262 12.0082 16.1765 12.1185C17.6536 12.2899 19.1801 12.2899 20.6572 12.1185C21.6075 12.0082 22.3759 11.2311 22.4879 10.2361C22.6646 8.66737 22.6646 7.08261 22.4879 5.51389C22.3759 4.5189 21.6075 3.7418 20.6572 3.63151Z" fill="#B8B8B8"/>
<path d="M20.6572 14.8815C19.1801 14.7101 17.6536 14.7101 16.1765 14.8815C15.2262 14.9918 14.4578 15.7689 14.3457 16.7639C14.1691 18.3326 14.1691 19.9174 14.3457 21.4861C14.4578 22.4811 15.2262 23.2582 16.1765 23.3685C17.6536 23.5399 19.1801 23.5399 20.6572 23.3685C21.6075 23.2582 22.3759 22.4811 22.4879 21.4861C22.6646 19.9174 22.6646 18.3326 22.4879 16.7639C22.3759 15.7689 21.6075 14.9918 20.6572 14.8815Z" fill="#B8B8B8"/>
</svg>
