<svg width="21" height="20" viewBox="0 0 21 20" fill="none" xmlns="http://www.w3.org/2000/svg">
<path d="M21 6.97228V16.9109C21 17.1397 20.9078 17.3591 20.7437 17.5209C20.5796 17.6827 20.3571 17.7736 20.125 17.7736C19.8929 17.7736 19.6704 17.6827 19.5063 17.5209C19.3422 17.3591 19.25 17.1397 19.25 16.9109V9.79511L12.775 12.8457C12.0922 13.243 11.3129 13.45 10.5201 13.4444C9.6887 13.4457 8.87242 13.2254 8.15758 12.8069L1.70005 9.77613C1.19245 9.507 0.767134 9.10885 0.468242 8.62298C0.169351 8.13711 0.00777291 7.58124 0.000273496 7.01303C-0.00722591 6.44482 0.139627 5.88499 0.425594 5.39162C0.711561 4.89825 1.12622 4.48932 1.62655 4.20725C1.65018 4.19345 1.67555 4.18051 1.70005 4.16843L8.22495 1.09886C8.92939 0.699992 9.72887 0.49334 10.5412 0.500164C11.3535 0.506987 12.1493 0.727038 12.8467 1.13768L19.2999 4.16843C19.8091 4.44621 20.2346 4.85196 20.5332 5.34443C20.8318 5.83691 20.9929 6.39855 21 6.97228ZM10.5192 15.1682C9.39971 15.1706 8.29944 14.8813 7.32982 14.3296L3.49994 12.5274V14.8567C3.50046 15.7777 3.7995 16.6744 4.35344 17.416C4.90737 18.1575 5.68719 18.7051 6.57907 18.9788C7.85337 19.3395 9.17428 19.5148 10.5 19.499C11.8258 19.5137 13.1467 19.3373 14.4209 18.9753C15.3127 18.7016 16.0926 18.1541 16.6465 17.4125C17.2004 16.6709 17.4995 15.7742 17.5 14.8533V12.5317L13.5983 14.3693C12.6618 14.8998 11.5993 15.176 10.5192 15.1699V15.1682Z" fill="#272727"/>
</svg>
