<svg width="16" height="20" viewBox="0 0 16 20" fill="none" xmlns="http://www.w3.org/2000/svg">
<path d="M12 0.5H4C1.7944 0.5 0 2.27571 0 4.45833V16.3333C0 18.0798 1.4352 19.5 3.2 19.5H12C14.2056 19.5 16 17.7243 16 15.5417V4.45833C16 2.27571 14.2056 0.5 12 0.5ZM14.4 4.45833V13.1667H4.8V2.08333H8V8.69138C8 9.18458 8.6328 9.39596 8.9352 9.00408L10 7.62421L11.0648 9.00408C11.3672 9.39596 12 9.18458 12 8.69138V2.08333C13.3232 2.08333 14.4 3.14892 14.4 4.45833ZM3.2 2.229V13.1667C2.6144 13.1667 2.0728 13.3345 1.6 13.6068V4.45833C1.6 3.42758 2.2712 2.55675 3.2 2.229ZM12 17.9167H3.2C1.0968 17.8795 1.0984 14.7864 3.2 14.75H14.4V15.5417C14.4 16.8511 13.3232 17.9167 12 17.9167Z" fill="#A2A2A2"/>
</svg>
