<svg width="148" height="147" viewBox="0 0 148 147" fill="none" xmlns="http://www.w3.org/2000/svg">
<path d="M60.1033 69.1513C58.9499 67.9979 57.3857 67.35 55.7546 67.35C54.1235 67.35 52.5592 67.9979 51.4058 69.1513C50.2524 70.3046 49.6045 71.8689 49.6045 73.5C49.6045 75.1311 50.2524 76.6954 51.4058 77.8488L69.7808 96.2238C70.3531 96.7914 71.0319 97.2406 71.7781 97.5454C72.5244 97.8502 73.3235 98.0047 74.1296 98C74.9681 97.9734 75.7922 97.7749 76.5508 97.4166C77.3094 97.0584 77.9863 96.5481 78.5396 95.9175L121.415 46.9175C122.405 45.6884 122.882 44.1246 122.747 42.5521C122.612 40.9797 121.876 39.5199 120.691 38.4773C119.506 37.4347 117.964 36.8897 116.388 36.9558C114.811 37.022 113.32 37.6943 112.227 38.8325L74.1296 82.9325L60.1033 69.1513Z" fill="#A17FDA"/>
<path d="M129.256 67.375C127.632 67.375 126.074 68.0203 124.925 69.169C123.776 70.3176 123.131 71.8755 123.131 73.5C123.131 86.4956 117.969 98.959 108.779 108.148C99.59 117.338 87.1267 122.5 74.1311 122.5C64.4541 122.496 54.9951 119.626 46.9468 114.253C38.8986 108.88 32.6215 101.244 28.907 92.3085C25.1925 83.3728 24.2071 73.5373 26.0749 64.0423C27.9426 54.5473 32.58 45.818 39.4023 38.955C43.9391 34.3575 49.3473 30.711 55.3105 28.229C61.2737 25.747 67.672 24.4792 74.1311 24.5C78.0477 24.5245 81.95 24.9764 85.7686 25.8475C86.5677 26.0947 87.4089 26.1756 88.2405 26.0851C89.0721 25.9947 89.8763 25.735 90.6036 25.3218C91.3309 24.9087 91.9659 24.351 92.4694 23.6831C92.973 23.0151 93.3343 22.2511 93.5313 21.4382C93.7282 20.6253 93.7566 19.7806 93.6146 18.9563C93.4726 18.1319 93.1633 17.3454 92.7057 16.6452C92.2481 15.9451 91.6519 15.346 90.9539 14.885C90.2559 14.4241 89.4709 14.111 88.6473 13.965C83.8891 12.8456 79.0191 12.2703 74.1311 12.25C62.0301 12.3129 50.219 15.9588 40.1881 22.7277C30.1573 29.4967 22.3563 39.0852 17.7695 50.2834C13.1828 61.4815 12.016 73.7874 14.4162 85.6481C16.8164 97.5087 22.6762 108.393 31.2561 116.926C42.6283 128.304 58.0447 134.712 74.1311 134.75C90.3756 134.75 105.955 128.297 117.441 116.81C128.928 105.324 135.381 89.7445 135.381 73.5C135.381 71.8755 134.736 70.3176 133.587 69.169C132.438 68.0203 130.881 67.375 129.256 67.375Z" fill="#A17FDA"/>
</svg>
