<svg width="25" height="25" viewBox="0 0 25 25" fill="none" xmlns="http://www.w3.org/2000/svg">
<path d="M14.8174 10.5557H21.6331C21.858 10.5557 22.0738 10.4663 22.2328 10.3073C22.3919 10.1482 22.4812 9.9325 22.4812 9.70756C22.4812 7.67498 21.6738 5.72564 20.2365 4.28839C18.7993 2.85114 16.85 2.0437 14.8174 2.0437C14.5924 2.0437 14.3767 2.13306 14.2177 2.29211C14.0586 2.45117 13.9692 2.6669 13.9692 2.89183V9.70756C13.9692 9.9325 14.0586 10.1482 14.2177 10.3073C14.3767 10.4663 14.5924 10.5557 14.8174 10.5557Z" fill="#B8B8B8"/>
<path d="M21.6175 12.4015H13.2894C13.1673 12.4015 13.0464 12.3775 12.9336 12.3308C12.8207 12.284 12.7182 12.2155 12.6319 12.1292C12.5455 12.0428 12.477 11.9403 12.4303 11.8275C12.3836 11.7147 12.3595 11.5938 12.3595 11.4717V3.12316C12.3603 2.99062 12.3331 2.8594 12.2796 2.73813C12.2261 2.61686 12.1475 2.50828 12.0491 2.4195C11.9507 2.33072 11.8346 2.26377 11.7084 2.22302C11.5823 2.18227 11.449 2.16865 11.3172 2.18306C9.39897 2.38675 7.57755 3.12927 6.06359 4.32474C4.54963 5.52021 3.40499 7.11981 2.76203 8.93856C2.11907 10.7573 2.00406 12.7209 2.4303 14.6023C2.85654 16.4836 3.80661 18.2059 5.17066 19.57C6.5347 20.934 8.25699 21.8841 10.1384 22.3103C12.0197 22.7366 13.9833 22.6215 15.8021 21.9786C17.6208 21.3356 19.2204 20.191 20.4159 18.677C21.6114 17.1631 22.3539 15.3416 22.5576 13.4234C22.5689 13.2932 22.553 13.1621 22.5109 13.0385C22.4688 12.9148 22.4013 12.8013 22.3129 12.7051C22.2244 12.609 22.1169 12.5323 21.9972 12.4801C21.8774 12.4278 21.7481 12.401 21.6175 12.4015Z" fill="#B8B8B8"/>
</svg>
